Coordinates
version=1
nRows=13
nColumns=40
inDegrees=yes

Units are S.I. units (second, meters, Newtons, ...)
Angles are in degrees.

endheader
time	pelvis_tilt	pelvis_list	pelvis_rotation	pelvis_tx	pelvis_ty	pelvis_tz	hip_flexion_r	hip_adduction_r	hip_rotation_r	knee_angle_r	knee_angle_r_beta	ankle_angle_r	subtalar_angle_r	mtp_angle_r	hip_flexion_l	hip_adduction_l	hip_rotation_l	knee_angle_l	knee_angle_l_beta	ankle_angle_l	subtalar_angle_l	mtp_angle_l	lumbar_extension	lumbar_bending	lumbar_rotation	arm_flex_r	arm_add_r	arm_rot_r	elbow_flex_r	pro_sup_r	wrist_flex_r	wrist_dev_r	arm_flex_l	arm_add_l	arm_rot_l	elbow_flex_l	pro_sup_l	wrist_flex_l	wrist_dev_l
      1.12000000	     -0.78327139	      0.97591160	      0.15751380	     -0.81054238	      0.89601536	     -1.02960868	      4.33426905	     -5.53192900	     -9.30894618	    -46.14842852	     -0.80544202	     -7.93457690	      0.77917688	     -2.17981399	      9.44703582	     -2.85584884	     13.80868765	    -12.19404465	     -0.21282623	      1.92766219	     -2.48698157	     -5.74792051	     -7.85624043	     -0.26962369	      1.84867640	      7.78255963	     -8.94063112	     21.02519050	      9.95870069	     89.95437384	      0.00000000	      0.00000000	      4.06511719	      7.90305109	    -12.17375114	     17.80203784	     89.95437384	      0.00000000	      0.00000000
      1.13000000	     -0.72562750	      1.51759035	     -0.32008593	     -0.80531138	      0.89592594	     -1.03043116	      5.54629493	     -6.27950693	     -8.61216065	    -48.04204534	     -0.83849187	     -7.52047876	     -1.54828203	     -1.87092035	      8.70031706	     -3.57828790	     13.98894728	    -11.66010758	     -0.20350727	      2.49017186	     -2.71604730	     -5.76269937	     -7.94067321	     -0.87317429	      2.02173344	      7.58498280	     -9.01480614	     21.55709691	      9.78867333	     89.95437384	      0.00000000	      0.00000000	      4.40271697	      8.17274475	    -13.00612693	     18.16560316	     89.95437384	      0.00000000	      0.00000000
      1.14000000	     -0.60574804	      1.69436327	     -0.53028215	     -0.80005179	      0.89594833	     -1.03143183	      6.50075115	     -6.62652475	     -8.30945838	    -49.52550531	     -0.86438313	     -6.82091323	     -3.55700531	     -1.59591667	      8.06967976	     -3.86222589	     14.11529893	    -11.44993384	     -0.19983904	      2.68151618	     -2.74211619	     -5.69577530	     -8.06364219	     -1.04151835	      1.91343294	      7.33334568	     -9.19067216	     21.93590304	      9.92706685	     89.95437384	      0.00000000	      0.00000000	      4.71577099	      8.41281348	    -13.73034175	     18.48087048	     89.95437384	      0.00000000	      0.00000000
      1.15000000	     -0.52080782	      1.70675029	     -0.71794687	     -0.79511666	      0.89602853	     -1.03214534	      7.51881247	     -6.61594635	     -7.85600697	    -50.82361565	     -0.88703943	     -6.19261217	     -6.35243476	      0.21720967	      7.44538302	     -3.97683937	     14.21974612	    -11.13692356	     -0.19437598	      2.89875842	     -2.46537618	     -5.53189620	     -8.19854725	     -1.04642873	      1.83009049	      7.03113053	     -9.52079676	     23.13826956	     10.37755784	     89.95437384	      0.00000000	      0.00000000	      5.05306185	      8.89947350	    -15.77535060	     19.01371389	     89.95437384	      0.00000000	      0.00000000
      1.16000000	     -0.34882875	      1.54260173	     -0.65591420	     -0.79007965	      0.89633583	     -1.03333634	      8.27845607	     -6.65431372	     -7.98925596	    -51.75336114	     -0.90326655	     -5.77613933	     -6.74123203	      0.22328505	      6.82508064	     -3.89185917	     14.37189407	    -11.02945399	     -0.19250029	      3.13811024	     -2.49643078	     -5.50791631	     -8.43776720	     -0.78708926	      1.32798409	      6.98139333	     -9.63292156	     23.08724407	     10.48242339	     89.95437384	      0.00000000	      0.00000000	      5.41353940	      8.98257120	    -15.79319753	     19.10604431	     89.95437384	      0.00000000	      0.00000000
      1.17000000	     -0.16505334	      1.83736242	     -1.02646856	     -0.78493812	      0.89661958	     -1.03393919	      9.19950144	     -6.94640241	     -7.47975857	    -52.76972228	     -0.92100540	     -4.70017412	     -9.85776236	      1.10323076	      5.98376832	     -4.32276389	     14.65373006	    -10.49552161	     -0.18318141	      3.18252777	     -2.80059819	     -5.52256217	     -8.62290522	     -1.12264449	      1.37518343	      6.81343642	     -9.72610260	     22.97445750	     10.60297571	     89.95437384	      0.00000000	      0.00000000	      5.82397278	      9.24543166	    -16.47014358	     19.39724236	     89.95437384	      0.00000000	      0.00000000
      1.18000000	      0.00550052	      1.72014469	     -1.11322341	     -0.77992424	      0.89705548	     -1.03461472	     10.00730475	     -6.78942574	     -7.31364842	    -53.54287349	     -0.93449943	     -2.88062338	    -10.85924442	      9.36886226	      5.25031877	     -4.29963258	     14.66266737	    -10.15985589	     -0.17732294	      3.45647332	     -2.89503969	     -5.71470866	     -8.82392900	     -0.95776962	      1.07742664	      6.76120573	     -9.76169236	     22.39805294	     10.70578250	     89.95437384	      0.00000000	      0.00000000	      6.23100852	      9.48568701	    -17.23229326	     19.56857280	     89.95437384	      0.00000000	      0.00000000
      1.19000000	      0.16085523	      1.59312132	     -1.05216747	     -0.77472739	      0.89755005	     -1.03550623	     10.66536269	     -6.71959429	     -7.44601836	    -53.89463914	     -0.94063890	     -1.97968493	    -11.89632408	      9.35854999	      4.58419097	     -4.26939134	     14.56834548	     -9.94034504	     -0.17349175	      3.70100553	     -3.06427304	     -5.73724664	     -8.97513986	     -0.76610293	      0.61268091	      6.71632952	     -9.83267353	     22.33040403	     10.81493760	     89.95437384	      0.00000000	      0.00000000	      6.63153482	      9.62197556	    -17.40727841	     19.61192008	     89.95437384	      0.00000000	      0.00000000
      1.20000000	      0.23427575	      1.46266670	     -1.02882748	     -0.76982315	      0.89799771	     -1.03653111	     11.47276179	     -6.71699644	     -7.66987723	    -54.10645574	     -0.94433580	     -1.62589412	    -12.16044017	      9.27508099	      4.15246122	     -4.20644531	     14.74373386	     -9.94541745	     -0.17358028	      3.88229479	     -3.01525217	     -5.69523825	     -9.06324462	     -0.53895780	      0.12427677	      6.74130118	     -9.91718425	     22.26686552	     10.98144458	     89.95437384	      0.00000000	      0.00000000	      7.01714177	      9.70912554	    -17.47377502	     19.64520261	     89.95437384	      0.00000000	      0.00000000
      1.21000000	      0.48369206	      1.25390579	     -1.01099451	     -0.76439240	      0.89867184	     -1.03707323	     11.90294358	     -6.36730913	     -7.74457149	    -53.96756037	     -0.94191162	     -0.83046934	    -14.30946314	      9.80439673	      3.23829157	     -4.09602252	     14.44753256	     -9.48681857	     -0.16557622	      4.02499954	     -3.16954797	     -5.70139183	     -9.25689650	     -0.28782285	     -0.11397011	      6.55318477	    -10.02648611	     21.98045080	     11.29887142	     89.95437384	      0.00000000	      0.00000000	      7.49317962	      9.91982589	    -18.33025194	     19.68860847	     89.95437384	      0.00000000	      0.00000000
      1.22000000	      0.59615443	      1.05931401	     -0.95049469	     -0.75954979	      0.89924828	     -1.03781502	     12.57095403	     -6.09237811	     -7.85535018	    -53.75258844	     -0.93815965	     -0.36297034	    -15.11080176	     11.39244829	      2.77200438	     -3.95840580	     14.28946545	     -9.51969405	     -0.16615000	      4.34999103	     -3.05847858	     -5.51649053	     -9.37385107	     -0.01319169	     -0.51126773	      6.57194579	    -10.04011002	     21.35328675	     11.48516363	     89.95437384	      0.00000000	      0.00000000	      7.96484119	     10.19491149	    -19.50121140	     19.76648887	     89.95437384	      0.00000000	      0.00000000
      1.23000000	      0.53294680	      0.90878153	     -0.89177993	     -0.75455166	      0.89939635	     -1.03857500	     13.44275286	     -5.94061112	     -8.06020842	    -53.51203538	     -0.93396121	      0.11379963	    -15.23527236	     11.34734878	      2.36493186	     -3.86707447	     14.38517022	     -9.33084513	     -0.16285397	      4.59281594	     -3.04871092	     -5.49222663	     -9.23332146	      0.21668791	     -0.98138294	      6.57082410	    -10.08605408	     21.29288078	     11.66444093	     89.95437384	      0.00000000	      0.00000000	      8.32632892	     10.28240347	    -19.52433657	     19.72911162	     89.95437384	      0.00000000	      0.00000000
      1.24000000	      0.50862450	      0.82899028	     -0.86654086	     -0.74953335	      0.89968292	     -1.03936468	     14.23401475	     -5.81944328	     -8.20866959	    -53.04040892	     -0.92572977	      0.71500300	    -15.43851516	     11.30123275	      1.99518742	     -3.85229667	     14.38636578	     -9.25175242	     -0.16147354	      4.82214708	     -3.07143074	     -5.46829012	     -9.14266464	      0.38602275	     -1.40052347	      6.54472165	    -10.15036755	     21.20408943	     11.96262054	     89.95437384	      0.00000000	      0.00000000	      8.71082852	     10.37692291	    -19.58656759	     19.68871867	     89.95437384	      0.00000000	      0.00000000
